{
  "accessors": [
    {
      "bufferView": 2,
      "componentType": 5126,
      "count": 7005,
      "max": [
        363.4530334472656,
        199.77333068847656,
        1655.4017333984375
      ],
      "min": [
        -355.2018737792969,
        -104.5422134399414,
        982.777099609375
      ],
      "type": "VEC3"
    },
    {
      "bufferView": 2,
      "byteOffset": 84060,
      "componentType": 5126,
      "count": 7005,
      "max": [
        0.9997044801712036,
        0.9999894499778748,
        0.9699896574020386
      ],
      "min": [
        -0.9999146461486816,
        -0.9999724626541138,
        -0.9502924680709839
      ],
      "type": "VEC3"
    },
    {
      "bufferView": 1,
      "componentType": 5126,
      "count": 7005,
      "max": [
        585.5230712890625,
        688.03857421875
      ],
      "min": [
        -584.9329833984375,
        -16.556640625
      ],
      "type": "VEC2"
    },
    {
      "bufferView": 0,
      "componentType": 5125,
      "count": 39978,
      "type": "SCALAR"
    },
    {
      "bufferView": 2,
      "byteOffset": 168120,
      "componentType": 5126,
      "count": 7005,
      "max": [
        363.0614318847656,
        199.2798614501953,
        1654.94970703125
      ],
      "min": [
        -354.7926330566406,
        -104.0441665649414,
        982.7305908203125
      ],
      "type": "VEC3"
    },
    {
      "bufferView": 2,
      "byteOffset": 252180,
      "componentType": 5126,
      "count": 7005,
      "max": [
        0.9999150037765503,
        0.9999723434448242,
        0.9497552514076233
      ],
      "min": [
        -0.9997053742408752,
        -0.9999894499778748,
        -0.9700305461883545
      ],
      "type": "VEC3"
    },
    {
      "bufferView": 1,
      "byteOffset": 56040,
      "componentType": 5126,
      "count": 7005,
      "max": [
        585.5230712890625,
        688.03857421875
      ],
      "min": [
        -584.9329833984375,
        -16.556640625
      ],
      "type": "VEC2"
    },
    {
      "bufferView": 0,
      "byteOffset": 159912,
      "componentType": 5125,
      "count": 39978,
      "type": "SCALAR"
    },
    {
      "bufferView": 2,
      "byteOffset": 336240,
      "componentType": 5126,
      "count": 5033,
      "max": [
        363.50421142578125,
        199.4957275390625,
        1655.42138671875
      ],
      "min": [
        -355.24432373046875,
        -104.5422134399414,
        982.5049438476563
      ],
      "type": "VEC3"
    },
    {
      "bufferView": 2,
      "byteOffset": 396636,
      "componentType": 5126,
      "count": 5033,
      "max": [
        0.9999823570251465,
        0.9998064637184143,
        0.99983811378479
      ],
      "min": [
        -0.9997161030769348,
        -0.9999428987503052,
        -0.9999315738677979
      ],
      "type": "VEC3"
    },
    {
      "bufferView": 1,
      "byteOffset": 112080,
      "componentType": 5126,
      "count": 5033,
      "max": [
        586.02294921875,
        688.5360107421875
      ],
      "min": [
        -585.432861328125,
        -17.056640625
      ],
      "type": "VEC2"
    },
    {
      "bufferView": 0,
      "byteOffset": 319824,
      "componentType": 5125,
      "count": 24120,
      "type": "SCALAR"
    }
  ],
  "asset": {
    "extras": {
      "author": "Ikal.Ichwan (https://sketchfab.com/Ikal.Ichwan)",
      "license": "CC-BY-4.0 (http://creativecommons.org/licenses/by/4.0/)",
      "source": "https://sketchfab.com/3d-models/t-shirt-lengan-pendek-0f7c1ad13f114f2b9da596641bb47fa7",
      "title": "T-shirt - Lengan Pendek"
    },
    "generator": "Sketchfab-12.59.0",
    "version": "2.0"
  },
  "bufferViews": [
    {
      "buffer": 0,
      "byteLength": 416304,
      "name": "floatBufferViews",
      "target": 34963
    },
    {
      "buffer": 0,
      "byteLength": 152344,
      "byteOffset": 416304,
      "byteStride": 8,
      "name": "floatBufferViews",
      "target": 34962
    },
    {
      "buffer": 0,
      "byteLength": 457032,
      "byteOffset": 568648,
      "byteStride": 12,
      "name": "floatBufferViews",
      "target": 34962
    }
  ],
  "buffers": [
    {
      "byteLength": 1025680,
      "uri": "scene.bin"
    }
  ],
  "materials": [
    {
      "doubleSided": true,
      "name": "FABRIC_5_FRONT_2209",
      "pbrMetallicRoughness": {
        "metallicFactor": 0.0,
        "roughnessFactor": 0.9827475502465659
      }
    }
  ],
  "meshes": [
    {
      "name": "Object_0",
      "primitives": [
        {
          "attributes": {
            "NORMAL": 1,
            "POSITION": 0,
            "TEXCOORD_0": 2
          },
          "indices": 3,
          "material": 0,
          "mode": 4
        }
      ]
    },
    {
      "name": "Object_1",
      "primitives": [
        {
          "attributes": {
            "NORMAL": 5,
            "POSITION": 4,
            "TEXCOORD_0": 6
          },
          "indices": 7,
          "material": 0,
          "mode": 4
        }
      ]
    },
    {
      "name": "Object_2",
      "primitives": [
        {
          "attributes": {
            "NORMAL": 9,
            "POSITION": 8,
            "TEXCOORD_0": 10
          },
          "indices": 11,
          "material": 0,
          "mode": 4
        }
      ]
    }
  ],
  "nodes": [
    {
      "children": [
        1
      ],
      "matrix": [
        1.0,
        0.0,
        0.0,
        0.0,
        0.0,
        2.220446049250313e-16,
        -1.0,
        0.0,
        0.0,
        1.0,
        2.220446049250313e-16,
        0.0,
        0.0,
        0.0,
        0.0,
        1.0
      ],
      "name": "Sketchfab_model"
    },
    {
      "children": [
        2,
        3,
        4
      ],
      "name": "T-shirt 3D-short sleeve.obj.cleaner.materialmerger.gles"
    },
    {
      "mesh": 0,
      "name": "Object_2"
    },
    {
      "mesh": 1,
      "name": "Object_3"
    },
    {
      "mesh": 2,
      "name": "Object_4"
    }
  ],
  "scene": 0,
  "scenes": [
    {
      "name": "Sketchfab_Scene",
      "nodes": [
        0
      ]
    }
  ]
}
